<svg width="416" height="416" viewBox="0 0 416 416" fill="none" xmlns="http://www.w3.org/2000/svg">
<path d="M335.3 127.999H288V80.6992C288 36.4992 252.2 0.699219 208 0.699219C163.8 0.699219 128 36.4992 128 80.6992V127.999H80.7002C36.5002 127.999 0.700195 163.799 0.700195 207.999C0.700195 252.199 36.5002 287.999 80.7002 287.999H128V335.399C128 379.599 163.8 415.399 208 415.399C252.2 415.399 288 379.599 288 335.399V287.999H335.4C379.6 287.999 415.4 252.199 415.4 207.999C415.3 163.799 379.5 127.999 335.3 127.999Z" fill="black"/>
</svg>
