<?xml version="1.0" encoding="UTF-8"?>
<svg id="Layer_1" data-name="Layer 1" xmlns="http://www.w3.org/2000/svg" viewBox="0 0 609.55 483.33">
  <defs>
    <style>
      .cls-1 {
        fill: #002538;
      }
    </style>
  </defs>
  <path class="cls-1" d="m74.26,71.34c-10.49,14.86-16.68,33.18-11.64,51.32,6.78,24.42,32.88,41.94,58.08,34.06,21.96-6.87,37.93-28.4,36.89-51.68-1.04-23.41-17.08-43.79-39.92-49.73-18.25-4.74-40.02,6.01-44.39,25.2-4.29,18.84,5.66,39.31,25.2,44.39,3.6,1.02,2.46.48-3.41-1.62-3.25-1.9-5.76-4.52-7.52-7.86.33.53.65,1.06.98,1.6-2.06-3.39-3.07-7.07-3.03-11.04,1.18-6.14,1.43-7.8.74-4.96-.73,2.71-.09,1.28,1.93-4.28,1.91-3.13,4.46-5.56,7.68-7.31,6.31-3.65,12.6-4.06,18.86-1.23,8.09,2.15,15.52,6.19,17.51,15.28.24,2.05.47,4.11.71,6.16.09-3.59-.1-2.3-.57,3.88,1.17-6.49-4,6.25-.36,1.16,1.6-2.24,2.99-4.65,4.59-6.91,10.92-15.47,3.28-40.8-12.95-49.37-18.53-9.79-37.72-3.57-49.37,12.95h0Z"/>
  <path class="cls-1" d="m393.53,19.09c-19.95,21.56-15.38,54.48,9.02,70.45,16.7,10.93,42.77,10.19,59.02-1.49,11.68-8.39,19.27-19.31,21.21-33.72,1.52-11.32-.42-22.4-6.54-32.24-6.48-10.44-17.67-18.92-29.9-21.05-12.21-2.13-26.53-1.47-36.89,6.36-7.8,5.9-13.88,11.74-16.58,21.57-2.38,8.64-1.3,20.14,3.64,27.81,4.97,7.7,12.36,14.49,21.57,16.58,8.81,2.01,20.24,2.08,27.81-3.64.71-.61,1.48-1.12,2.31-1.53-2.87,1.21-5.75,2.42-8.62,3.64,1.36-.57,2.53-.91,3.98-1.16-3.2.43-6.39.86-9.59,1.29.93-.11,1.86-.12,2.79-.03-3.2-.43-6.39-.86-9.59-1.29,1.46.22,2.65.52,4.02,1.05-2.87-1.21-5.75-2.42-8.62-3.64.85.38,1.64.86,2.37,1.43-2.43-1.88-4.87-3.76-7.3-5.64.74.58,1.38,1.24,1.94,1.99-1.88-2.43-3.76-4.87-5.64-7.3.56.74,1.02,1.54,1.38,2.4-1.21-2.87-2.42-5.75-3.64-8.62.36.86.63,1.74.79,2.66-.43-3.2-.86-6.4-1.29-9.59.19,1.46.21,2.7.08,4.17.43-3.2.86-6.39,1.29-9.59-.13.92-.36,1.82-.68,2.69,1.21-2.87,2.43-5.75,3.64-8.62-.33.87-.75,1.69-1.28,2.45,1.88-2.43,3.76-4.87,5.64-7.3-.58.83-1.25,1.56-2.02,2.22,2.43-1.88,4.87-3.76,7.3-5.64-1.36,1.03-2.59,1.76-4.13,2.48,2.87-1.21,5.75-2.42,8.62-3.64-2.04.76-4.04,1.26-6.19,1.6,3.2-.43,6.4-.86,9.59-1.29-2.08.19-4.03.19-6.1-.06,3.2.43,6.39.86,9.59,1.29-.99-.16-1.96-.41-2.9-.75,2.87,1.21,5.75,2.42,8.62,3.64-1.47-.63-2.58-1.27-3.86-2.23,2.43,1.88,4.87,3.76,7.3,5.64-.3-.3-.6-.59-.9-.89,1.88,2.43,3.76,4.87,5.64,7.3-.84-1.08-1.39-2.02-1.93-3.28,1.21,2.87,2.43,5.75,3.64,8.62-.29-.8-.48-1.62-.58-2.47.43,3.2.86,6.4,1.29,9.59-.09-.83-.07-1.65.06-2.47-.43,3.2-.86,6.39-1.29,9.59.13-.8.38-1.57.75-2.3-1.21,2.87-2.43,5.75-3.64,8.62.22-.34.43-.68.65-1.02-1.88,2.43-3.76,4.87-5.64,7.3.28-.3.56-.61.84-.91,12.82-13.86,14.74-37.5,0-51.03-13.94-12.8-37.34-14.8-51.03,0h0Z"/>
  <path class="cls-1" d="m8.73,337.04c82.59,101.11,214.7,162.64,345.84,142.48,120.26-18.49,227.33-111.24,253.99-231.14,10.06-45.25-59.5-64.57-69.59-19.19-21.29,95.76-106.21,168.12-203.03,180.57-107.16,13.78-209.95-42.67-276.18-123.75-29.4-35.99-80.19,15.34-51.03,51.03h0Z"/>
</svg>